<svg width="1726" height="512" viewBox="0 0 1726 512" fill="none" xmlns="http://www.w3.org/2000/svg">
<path d="M96.4475 255.057L140.474 211.198L184.5 166.084L184.5 255.171L272.552 255.057L184.5 342.775L96.4475 255.057Z" fill="white"/>
<path fill-rule="evenodd" clip-rule="evenodd" d="M38 255.057L184.5 109L331 255.057L184.5 401L38 255.057ZM67.3 255.057L184.5 138.189L301.7 255.057L184.5 371.811L67.3 255.057Z" fill="white"/>
<path d="M426.62 321.88C407.54 321.88 391.58 315.46 378.74 302.62C366.02 289.78 359.66 273.76 359.66 254.56C359.66 235.36 366.02 219.4 378.74 206.68C391.46 193.72 407.42 187.24 426.62 187.24C446.06 187.24 461.84 194.26 473.96 208.3L462.08 219.82C452.84 208.66 441.02 203.08 426.62 203.08C412.34 203.08 400.4 207.88 390.8 217.48C381.32 226.96 376.58 239.32 376.58 254.56C376.58 269.8 381.32 282.16 390.8 291.64C400.4 301.24 412.34 306.04 426.62 306.04C441.62 306.04 454.64 299.74 465.68 287.14L477.74 298.84C471.62 306.16 464.12 311.86 455.24 315.94C446.36 319.9 436.82 321.88 426.62 321.88ZM485.657 274.9C485.657 261.34 489.917 250.12 498.437 241.24C507.077 232.36 517.937 227.92 531.017 227.92C544.097 227.92 554.897 232.36 563.417 241.24C572.057 250.12 576.377 261.34 576.377 274.9C576.377 288.58 572.057 299.8 563.417 308.56C554.897 317.44 544.097 321.88 531.017 321.88C517.937 321.88 507.077 317.44 498.437 308.56C489.917 299.68 485.657 288.46 485.657 274.9ZM502.217 274.9C502.217 284.38 504.977 292.06 510.497 297.94C516.017 303.82 522.857 306.76 531.017 306.76C539.177 306.76 546.017 303.82 551.537 297.94C557.057 292.06 559.817 284.38 559.817 274.9C559.817 265.54 557.057 257.92 551.537 252.04C545.897 246.04 539.057 243.04 531.017 243.04C522.977 243.04 516.137 246.04 510.497 252.04C504.977 257.92 502.217 265.54 502.217 274.9ZM607.101 190.12V319H590.541V190.12H607.101ZM643.839 190.12V319H627.279V190.12H643.839ZM675.199 292C675.199 296.32 676.999 299.92 680.599 302.8C684.319 305.68 688.639 307.12 693.559 307.12C700.519 307.12 706.699 304.54 712.099 299.38C717.619 294.22 720.379 288.16 720.379 281.2C715.219 277.12 708.019 275.08 698.779 275.08C692.059 275.08 686.419 276.7 681.859 279.94C677.419 283.18 675.199 287.2 675.199 292ZM696.619 227.92C708.859 227.92 718.519 231.22 725.599 237.82C732.679 244.3 736.219 253.24 736.219 264.64V319H720.379V306.76H719.659C712.819 316.84 703.699 321.88 692.299 321.88C682.579 321.88 674.419 319 667.819 313.24C661.339 307.48 658.099 300.28 658.099 291.64C658.099 282.52 661.519 275.26 668.359 269.86C675.319 264.46 684.559 261.76 696.079 261.76C705.919 261.76 714.019 263.56 720.379 267.16V263.38C720.379 257.62 718.099 252.76 713.539 248.8C708.979 244.72 703.639 242.68 697.519 242.68C688.279 242.68 680.959 246.58 675.559 254.38L660.979 245.2C669.019 233.68 680.899 227.92 696.619 227.92ZM798.096 306.76C806.016 306.76 812.676 303.76 818.076 297.76C823.476 291.88 826.176 284.26 826.176 274.9C826.176 265.66 823.476 258.04 818.076 252.04C812.676 246.04 806.016 243.04 798.096 243.04C790.056 243.04 783.336 246.04 777.936 252.04C772.656 258.04 770.016 265.66 770.016 274.9C770.016 284.26 772.656 291.94 777.936 297.94C783.336 303.82 790.056 306.76 798.096 306.76ZM800.796 321.88C794.316 321.88 788.376 320.5 782.976 317.74C777.696 314.98 773.616 311.32 770.736 306.76H770.016L770.736 319V357.88H754.176V230.8H770.016V243.04H770.736C773.616 238.48 777.696 234.82 782.976 232.06C788.376 229.3 794.316 227.92 800.796 227.92C812.436 227.92 822.276 232.48 830.316 241.6C838.596 250.84 842.736 261.94 842.736 274.9C842.736 287.98 838.596 299.08 830.316 308.2C822.276 317.32 812.436 321.88 800.796 321.88ZM924.525 294.52C924.525 302.2 921.165 308.68 914.445 313.96C907.725 319.24 899.265 321.88 889.065 321.88C880.185 321.88 872.385 319.6 865.665 315.04C858.945 310.36 854.145 304.24 851.265 296.68L866.025 290.38C868.185 295.66 871.305 299.8 875.385 302.8C879.585 305.68 884.145 307.12 889.065 307.12C894.345 307.12 898.725 305.98 902.205 303.7C905.805 301.42 907.605 298.72 907.605 295.6C907.605 289.96 903.285 285.82 894.645 283.18L879.525 279.4C862.365 275.08 853.785 266.8 853.785 254.56C853.785 246.52 857.025 240.1 863.505 235.3C870.105 230.38 878.505 227.92 888.705 227.92C896.505 227.92 903.525 229.78 909.765 233.5C916.125 237.22 920.565 242.2 923.085 248.44L908.325 254.56C906.645 250.84 903.885 247.96 900.045 245.92C896.325 243.76 892.125 242.68 887.445 242.68C883.125 242.68 879.225 243.76 875.745 245.92C872.385 248.08 870.705 250.72 870.705 253.84C870.705 258.88 875.445 262.48 884.925 264.64L898.245 268.06C915.765 272.38 924.525 281.2 924.525 294.52ZM979.418 321.88C966.458 321.88 955.778 317.44 947.378 308.56C938.978 299.68 934.778 288.46 934.778 274.9C934.778 261.46 938.858 250.3 947.018 241.42C955.178 232.42 965.618 227.92 978.338 227.92C991.418 227.92 1001.8 232.18 1009.48 240.7C1017.28 249.1 1021.18 260.92 1021.18 276.16L1021 277.96H951.698C951.938 286.6 954.818 293.56 960.338 298.84C965.858 304.12 972.458 306.76 980.138 306.76C990.698 306.76 998.978 301.48 1004.98 290.92L1019.74 298.12C1015.78 305.56 1010.26 311.38 1003.18 315.58C996.218 319.78 988.298 321.88 979.418 321.88ZM952.958 264.28H1003.54C1003.06 258.16 1000.54 253.12 995.978 249.16C991.538 245.08 985.538 243.04 977.978 243.04C971.738 243.04 966.338 244.96 961.778 248.8C957.338 252.64 954.398 257.8 952.958 264.28ZM1118.76 284.62C1118.76 295.9 1114.62 304.96 1106.34 311.8C1097.94 318.52 1087.74 321.88 1075.74 321.88C1065.06 321.88 1055.64 318.76 1047.48 312.52C1039.32 306.28 1033.68 297.76 1030.56 286.96L1046.4 280.48C1047.48 284.32 1048.98 287.8 1050.9 290.92C1052.82 294.04 1055.04 296.74 1057.56 299.02C1060.2 301.18 1063.08 302.92 1066.2 304.24C1069.32 305.44 1072.62 306.04 1076.1 306.04C1083.66 306.04 1089.84 304.12 1094.64 300.28C1099.44 296.32 1101.84 291.1 1101.84 284.62C1101.84 279.22 1099.86 274.6 1095.9 270.76C1092.18 267.04 1085.22 263.44 1075.02 259.96C1064.7 256.24 1058.28 253.72 1055.76 252.4C1042.08 245.44 1035.24 235.18 1035.24 221.62C1035.24 212.14 1039.02 204.04 1046.58 197.32C1054.26 190.6 1063.68 187.24 1074.84 187.24C1084.68 187.24 1093.2 189.76 1100.4 194.8C1107.6 199.72 1112.4 205.9 1114.8 213.34L1099.32 219.82C1097.88 215.02 1095 211.06 1090.68 207.94C1086.48 204.7 1081.32 203.08 1075.2 203.08C1068.72 203.08 1063.26 204.88 1058.82 208.48C1054.38 211.84 1052.16 216.22 1052.16 221.62C1052.16 226.06 1053.9 229.9 1057.38 233.14C1061.22 236.38 1069.56 240.22 1082.4 244.66C1095.48 249.1 1104.78 254.56 1110.3 261.04C1115.94 267.4 1118.76 275.26 1118.76 284.62ZM1176.13 321.88C1163.05 321.88 1152.19 317.44 1143.55 308.56C1135.03 299.44 1130.77 288.22 1130.77 274.9C1130.77 261.34 1135.03 250.12 1143.55 241.24C1152.19 232.36 1163.05 227.92 1176.13 227.92C1185.13 227.92 1192.99 230.2 1199.71 234.76C1206.43 239.2 1211.47 245.38 1214.83 253.3L1199.71 259.6C1195.03 248.56 1186.81 243.04 1175.05 243.04C1167.49 243.04 1160.95 246.1 1155.43 252.22C1150.03 258.34 1147.33 265.9 1147.33 274.9C1147.33 283.9 1150.03 291.46 1155.43 297.58C1160.95 303.7 1167.49 306.76 1175.05 306.76C1187.17 306.76 1195.69 301.24 1200.61 290.2L1215.37 296.5C1212.13 304.42 1207.03 310.66 1200.07 315.22C1193.23 319.66 1185.25 321.88 1176.13 321.88ZM1241.04 292C1241.04 296.32 1242.84 299.92 1246.44 302.8C1250.16 305.68 1254.48 307.12 1259.4 307.12C1266.36 307.12 1272.54 304.54 1277.94 299.38C1283.46 294.22 1286.22 288.16 1286.22 281.2C1281.06 277.12 1273.86 275.08 1264.62 275.08C1257.9 275.08 1252.26 276.7 1247.7 279.94C1243.26 283.18 1241.04 287.2 1241.04 292ZM1262.46 227.92C1274.7 227.92 1284.36 231.22 1291.44 237.82C1298.52 244.3 1302.06 253.24 1302.06 264.64V319H1286.22V306.76H1285.5C1278.66 316.84 1269.54 321.88 1258.14 321.88C1248.42 321.88 1240.26 319 1233.66 313.24C1227.18 307.48 1223.94 300.28 1223.94 291.64C1223.94 282.52 1227.36 275.26 1234.2 269.86C1241.16 264.46 1250.4 261.76 1261.92 261.76C1271.76 261.76 1279.86 263.56 1286.22 267.16V263.38C1286.22 257.62 1283.94 252.76 1279.38 248.8C1274.82 244.72 1269.48 242.68 1263.36 242.68C1254.12 242.68 1246.8 246.58 1241.4 254.38L1226.82 245.2C1234.86 233.68 1246.74 227.92 1262.46 227.92ZM1320.74 230.8H1336.58V243.04H1337.3C1339.82 238.72 1343.66 235.12 1348.82 232.24C1354.1 229.36 1359.56 227.92 1365.2 227.92C1376 227.92 1384.28 231.04 1390.04 237.28C1395.92 243.4 1398.86 252.16 1398.86 263.56V319H1382.3V264.64C1381.94 250.24 1374.68 243.04 1360.52 243.04C1353.92 243.04 1348.4 245.74 1343.96 251.14C1339.52 256.42 1337.3 262.78 1337.3 270.22V319H1320.74V230.8ZM1418.29 230.8H1434.13V243.04H1434.85C1437.37 238.72 1441.21 235.12 1446.37 232.24C1451.65 229.36 1457.11 227.92 1462.75 227.92C1473.55 227.92 1481.83 231.04 1487.59 237.28C1493.47 243.4 1496.41 252.16 1496.41 263.56V319H1479.85V264.64C1479.49 250.24 1472.23 243.04 1458.07 243.04C1451.47 243.04 1445.95 245.74 1441.51 251.14C1437.07 256.42 1434.85 262.78 1434.85 270.22V319H1418.29V230.8ZM1555.45 321.88C1542.49 321.88 1531.81 317.44 1523.41 308.56C1515.01 299.68 1510.81 288.46 1510.81 274.9C1510.81 261.46 1514.89 250.3 1523.05 241.42C1531.21 232.42 1541.65 227.92 1554.37 227.92C1567.45 227.92 1577.83 232.18 1585.51 240.7C1593.31 249.1 1597.21 260.92 1597.21 276.16L1597.03 277.96H1527.73C1527.97 286.6 1530.85 293.56 1536.37 298.84C1541.89 304.12 1548.49 306.76 1556.17 306.76C1566.73 306.76 1575.01 301.48 1581.01 290.92L1595.77 298.12C1591.81 305.56 1586.29 311.38 1579.21 315.58C1572.25 319.78 1564.33 321.88 1555.45 321.88ZM1528.99 264.28H1579.57C1579.09 258.16 1576.57 253.12 1572.01 249.16C1567.57 245.08 1561.57 243.04 1554.01 243.04C1547.77 243.04 1542.37 244.96 1537.81 248.8C1533.37 252.64 1530.43 257.8 1528.99 264.28ZM1628.92 319H1612.36V230.8H1628.2V245.2H1628.92C1630.6 240.52 1634.02 236.56 1639.18 233.32C1644.46 229.96 1649.62 228.28 1654.66 228.28C1659.46 228.28 1663.54 229 1666.9 230.44L1661.86 246.46C1659.82 245.62 1656.58 245.2 1652.14 245.2C1645.9 245.2 1640.44 247.72 1635.76 252.76C1631.2 257.8 1628.92 263.68 1628.92 270.4V319Z" fill="white"/>
</svg>
