<svg width="1726" height="512" viewBox="0 0 1726 512" fill="none" xmlns="http://www.w3.org/2000/svg">
<path d="M161.026 157.5L222.33 218.542L246.935 218.542L161.026 133L38 255.5L161.026 378L246.935 292.458L222.33 292.458L161.026 353.5L62.6052 255.5L161.026 157.5Z" fill="white"/>
<path d="M161.026 181.872L197.998 218.686L161.026 255.5L197.998 292.314L161.026 329.127L87.0823 255.5L161.026 181.872Z" fill="white"/>
<path d="M210.108 157.5L271.412 218.542L296.017 218.542L210.108 133L197.805 145.25L197.805 145.25L210.108 157.5L210.108 157.5Z" fill="white"/>
<path d="M296.017 292.458L271.47 292.458L197.834 365.779L210.108 378L296.017 292.458Z" fill="white"/>
<path d="M206.697 232.834L184.079 255.356L206.697 277.877L206.731 277.843L206.731 277.911L309.382 277.911L309.382 277.877L332 255.356L309.382 232.834L309.348 232.868L206.731 232.868L206.697 232.834Z" fill="white"/>
<path d="M478.21 319.54C458.07 319.54 441.223 312.763 427.67 299.21C414.243 285.657 407.53 268.747 407.53 248.48C407.53 228.213 414.243 211.367 427.67 197.94C441.097 184.26 457.943 177.42 478.21 177.42C498.73 177.42 515.387 184.83 528.18 199.65L515.64 211.81C505.887 200.03 493.41 194.14 478.21 194.14C463.137 194.14 450.533 199.207 440.4 209.34C430.393 219.347 425.39 232.393 425.39 248.48C425.39 264.567 430.393 277.613 440.4 287.62C450.533 297.753 463.137 302.82 478.21 302.82C494.043 302.82 507.787 296.17 519.44 282.87L532.17 295.22C525.71 302.947 517.793 308.963 508.42 313.27C499.047 317.45 488.977 319.54 478.21 319.54ZM540.527 269.95C540.527 255.637 545.024 243.793 554.017 234.42C563.137 225.047 574.6 220.36 588.407 220.36C602.214 220.36 613.614 225.047 622.607 234.42C631.727 243.793 636.287 255.637 636.287 269.95C636.287 284.39 631.727 296.233 622.607 305.48C613.614 314.853 602.214 319.54 588.407 319.54C574.6 319.54 563.137 314.853 554.017 305.48C545.024 296.107 540.527 284.263 540.527 269.95ZM558.007 269.95C558.007 279.957 560.92 288.063 566.747 294.27C572.574 300.477 579.794 303.58 588.407 303.58C597.02 303.58 604.24 300.477 610.067 294.27C615.894 288.063 618.807 279.957 618.807 269.95C618.807 260.07 615.894 252.027 610.067 245.82C604.114 239.487 596.894 236.32 588.407 236.32C579.92 236.32 572.7 239.487 566.747 245.82C560.92 252.027 558.007 260.07 558.007 269.95ZM668.718 180.46V316.5H651.238V180.46H668.718ZM707.497 180.46V316.5H690.017V180.46H707.497ZM740.599 288C740.599 292.56 742.499 296.36 746.299 299.4C750.225 302.44 754.785 303.96 759.979 303.96C767.325 303.96 773.849 301.237 779.549 295.79C785.375 290.343 788.289 283.947 788.289 276.6C782.842 272.293 775.242 270.14 765.489 270.14C758.395 270.14 752.442 271.85 747.629 275.27C742.942 278.69 740.599 282.933 740.599 288ZM763.209 220.36C776.129 220.36 786.325 223.843 793.799 230.81C801.272 237.65 805.009 247.087 805.009 259.12V316.5H788.289V303.58H787.529C780.309 314.22 770.682 319.54 758.649 319.54C748.389 319.54 739.775 316.5 732.809 310.42C725.969 304.34 722.549 296.74 722.549 287.62C722.549 277.993 726.159 270.33 733.379 264.63C740.725 258.93 750.479 256.08 762.639 256.08C773.025 256.08 781.575 257.98 788.289 261.78V257.79C788.289 251.71 785.882 246.58 781.069 242.4C776.255 238.093 770.619 235.94 764.159 235.94C754.405 235.94 746.679 240.057 740.979 248.29L725.589 238.6C734.075 226.44 746.615 220.36 763.209 220.36ZM870.324 303.58C878.684 303.58 885.714 300.413 891.414 294.08C897.114 287.873 899.964 279.83 899.964 269.95C899.964 260.197 897.114 252.153 891.414 245.82C885.714 239.487 878.684 236.32 870.324 236.32C861.837 236.32 854.744 239.487 849.044 245.82C843.471 252.153 840.684 260.197 840.684 269.95C840.684 279.83 843.471 287.937 849.044 294.27C854.744 300.477 861.837 303.58 870.324 303.58ZM873.174 319.54C866.334 319.54 860.064 318.083 854.364 315.17C848.791 312.257 844.484 308.393 841.444 303.58H840.684L841.444 316.5V357.54H823.964V223.4H840.684V236.32H841.444C844.484 231.507 848.791 227.643 854.364 224.73C860.064 221.817 866.334 220.36 873.174 220.36C885.461 220.36 895.847 225.173 904.334 234.8C913.074 244.553 917.444 256.27 917.444 269.95C917.444 283.757 913.074 295.473 904.334 305.1C895.847 314.727 885.461 319.54 873.174 319.54ZM1003.78 290.66C1003.78 298.767 1000.23 305.607 993.137 311.18C986.043 316.753 977.113 319.54 966.347 319.54C956.973 319.54 948.74 317.133 941.647 312.32C934.553 307.38 929.487 300.92 926.447 292.94L942.027 286.29C944.307 291.863 947.6 296.233 951.907 299.4C956.34 302.44 961.153 303.96 966.347 303.96C971.92 303.96 976.543 302.757 980.217 300.35C984.017 297.943 985.917 295.093 985.917 291.8C985.917 285.847 981.357 281.477 972.237 278.69L956.277 274.7C938.163 270.14 929.107 261.4 929.107 248.48C929.107 239.993 932.527 233.217 939.367 228.15C946.333 222.957 955.2 220.36 965.967 220.36C974.2 220.36 981.61 222.323 988.197 226.25C994.91 230.177 999.597 235.433 1002.26 242.02L986.677 248.48C984.903 244.553 981.99 241.513 977.937 239.36C974.01 237.08 969.577 235.94 964.637 235.94C960.077 235.94 955.96 237.08 952.287 239.36C948.74 241.64 946.967 244.427 946.967 247.72C946.967 253.04 951.97 256.84 961.977 259.12L976.037 262.73C994.53 267.29 1003.78 276.6 1003.78 290.66ZM1061.72 319.54C1048.04 319.54 1036.77 314.853 1027.9 305.48C1019.03 296.107 1014.6 284.263 1014.6 269.95C1014.6 255.763 1018.91 243.983 1027.52 234.61C1036.13 225.11 1047.15 220.36 1060.58 220.36C1074.39 220.36 1085.34 224.857 1093.45 233.85C1101.68 242.717 1105.8 255.193 1105.8 271.28L1105.61 273.18H1032.46C1032.71 282.3 1035.75 289.647 1041.58 295.22C1047.41 300.793 1054.37 303.58 1062.48 303.58C1073.63 303.58 1082.37 298.007 1088.7 286.86L1104.28 294.46C1100.1 302.313 1094.27 308.457 1086.8 312.89C1079.45 317.323 1071.09 319.54 1061.72 319.54ZM1033.79 258.74H1087.18C1086.67 252.28 1084.01 246.96 1079.2 242.78C1074.51 238.473 1068.18 236.32 1060.2 236.32C1053.61 236.32 1047.91 238.347 1043.1 242.4C1038.41 246.453 1035.31 251.9 1033.79 258.74ZM1201.2 316.5H1124.82V180.46H1142.3V299.78H1201.2V316.5ZM1211.09 269.95C1211.09 255.637 1215.59 243.793 1224.58 234.42C1233.7 225.047 1245.17 220.36 1258.97 220.36C1272.78 220.36 1284.18 225.047 1293.17 234.42C1302.29 243.793 1306.85 255.637 1306.85 269.95C1306.85 284.39 1302.29 296.233 1293.17 305.48C1284.18 314.853 1272.78 319.54 1258.97 319.54C1245.17 319.54 1233.7 314.853 1224.58 305.48C1215.59 296.107 1211.09 284.263 1211.09 269.95ZM1228.57 269.95C1228.57 279.957 1231.49 288.063 1237.31 294.27C1243.14 300.477 1250.36 303.58 1258.97 303.58C1267.59 303.58 1274.81 300.477 1280.63 294.27C1286.46 288.063 1289.37 279.957 1289.37 269.95C1289.37 260.07 1286.46 252.027 1280.63 245.82C1274.68 239.487 1267.46 236.32 1258.97 236.32C1250.49 236.32 1243.27 239.487 1237.31 245.82C1231.49 252.027 1228.57 260.07 1228.57 269.95ZM1335.46 288C1335.46 292.56 1337.36 296.36 1341.16 299.4C1345.09 302.44 1349.65 303.96 1354.84 303.96C1362.19 303.96 1368.71 301.237 1374.41 295.79C1380.24 290.343 1383.15 283.947 1383.15 276.6C1377.71 272.293 1370.11 270.14 1360.35 270.14C1353.26 270.14 1347.31 271.85 1342.49 275.27C1337.81 278.69 1335.46 282.933 1335.46 288ZM1358.07 220.36C1370.99 220.36 1381.19 223.843 1388.66 230.81C1396.14 237.65 1399.87 247.087 1399.87 259.12V316.5H1383.15V303.58H1382.39C1375.17 314.22 1365.55 319.54 1353.51 319.54C1343.25 319.54 1334.64 316.5 1327.67 310.42C1320.83 304.34 1317.41 296.74 1317.41 287.62C1317.41 277.993 1321.02 270.33 1328.24 264.63C1335.59 258.93 1345.34 256.08 1357.5 256.08C1367.89 256.08 1376.44 257.98 1383.15 261.78V257.79C1383.15 251.71 1380.75 246.58 1375.93 242.4C1371.12 238.093 1365.48 235.94 1359.02 235.94C1349.27 235.94 1341.54 240.057 1335.84 248.29L1320.45 238.6C1328.94 226.44 1341.48 220.36 1358.07 220.36ZM1460.46 303.58C1469.07 303.58 1476.1 300.477 1481.55 294.27C1487.25 288.063 1490.1 279.957 1490.1 269.95C1490.1 260.197 1487.25 252.153 1481.55 245.82C1475.98 239.487 1468.95 236.32 1460.46 236.32C1452.1 236.32 1445.07 239.487 1439.37 245.82C1433.67 252.153 1430.82 260.197 1430.82 269.95C1430.82 279.83 1433.67 287.873 1439.37 294.08C1445.07 300.413 1452.1 303.58 1460.46 303.58ZM1457.61 319.54C1445.45 319.54 1435 314.727 1426.26 305.1C1417.65 295.347 1413.34 283.63 1413.34 269.95C1413.34 256.27 1417.65 244.553 1426.26 234.8C1435 225.173 1445.45 220.36 1457.61 220.36C1464.45 220.36 1470.66 221.817 1476.23 224.73C1481.93 227.643 1486.3 231.507 1489.34 236.32H1490.1L1489.34 223.4V180.46H1506.82V316.5H1490.1V303.58H1489.34C1486.3 308.393 1481.93 312.257 1476.23 315.17C1470.66 318.083 1464.45 319.54 1457.61 319.54ZM1569 319.54C1555.32 319.54 1544.05 314.853 1535.18 305.48C1526.32 296.107 1521.88 284.263 1521.88 269.95C1521.88 255.763 1526.19 243.983 1534.8 234.61C1543.42 225.11 1554.44 220.36 1567.86 220.36C1581.67 220.36 1592.63 224.857 1600.73 233.85C1608.97 242.717 1613.08 255.193 1613.08 271.28L1612.89 273.18H1539.74C1540 282.3 1543.04 289.647 1548.86 295.22C1554.69 300.793 1561.66 303.58 1569.76 303.58C1580.91 303.58 1589.65 298.007 1595.98 286.86L1611.56 294.46C1607.38 302.313 1601.56 308.457 1594.08 312.89C1586.74 317.323 1578.38 319.54 1569 319.54ZM1541.07 258.74H1594.46C1593.96 252.28 1591.3 246.96 1586.48 242.78C1581.8 238.473 1575.46 236.32 1567.48 236.32C1560.9 236.32 1555.2 238.347 1550.38 242.4C1545.7 246.453 1542.59 251.9 1541.07 258.74ZM1646.55 316.5H1629.07V223.4H1645.79V238.6H1646.55C1648.32 233.66 1651.93 229.48 1657.38 226.06C1662.95 222.513 1668.4 220.74 1673.72 220.74C1678.79 220.74 1683.09 221.5 1686.64 223.02L1681.32 239.93C1679.17 239.043 1675.75 238.6 1671.06 238.6C1664.47 238.6 1658.71 241.26 1653.77 246.58C1648.96 251.9 1646.55 258.107 1646.55 265.2V316.5Z" fill="white"/>
<g opacity="0.4">
<path d="M161.026 157.5L222.33 218.542L246.935 218.542L161.026 133L38 255.5L161.026 378L246.935 292.458L222.33 292.458L161.026 353.5L62.6052 255.5L161.026 157.5Z" fill="white"/>
<path d="M161.026 181.872L197.998 218.686L161.026 255.5L197.998 292.314L161.026 329.127L87.0823 255.5L161.026 181.872Z" fill="white"/>
<path d="M210.108 157.5L271.412 218.542L296.017 218.542L210.108 133L197.805 145.25L197.805 145.25L210.108 157.5L210.108 157.5Z" fill="white"/>
<path d="M296.017 292.458L271.47 292.458L197.834 365.779L210.108 378L296.017 292.458Z" fill="white"/>
<path d="M206.697 232.834L184.079 255.356L206.697 277.877L206.731 277.843L206.731 277.911L309.382 277.911L309.382 277.877L332 255.356L309.382 232.834L309.348 232.868L206.731 232.868L206.697 232.834Z" fill="white"/>
<path d="M478.21 319.54C458.07 319.54 441.223 312.763 427.67 299.21C414.243 285.657 407.53 268.747 407.53 248.48C407.53 228.213 414.243 211.367 427.67 197.94C441.097 184.26 457.943 177.42 478.21 177.42C498.73 177.42 515.387 184.83 528.18 199.65L515.64 211.81C505.887 200.03 493.41 194.14 478.21 194.14C463.137 194.14 450.533 199.207 440.4 209.34C430.393 219.347 425.39 232.393 425.39 248.48C425.39 264.567 430.393 277.613 440.4 287.62C450.533 297.753 463.137 302.82 478.21 302.82C494.043 302.82 507.787 296.17 519.44 282.87L532.17 295.22C525.71 302.947 517.793 308.963 508.42 313.27C499.047 317.45 488.977 319.54 478.21 319.54ZM540.527 269.95C540.527 255.637 545.024 243.793 554.017 234.42C563.137 225.047 574.6 220.36 588.407 220.36C602.214 220.36 613.614 225.047 622.607 234.42C631.727 243.793 636.287 255.637 636.287 269.95C636.287 284.39 631.727 296.233 622.607 305.48C613.614 314.853 602.214 319.54 588.407 319.54C574.6 319.54 563.137 314.853 554.017 305.48C545.024 296.107 540.527 284.263 540.527 269.95ZM558.007 269.95C558.007 279.957 560.92 288.063 566.747 294.27C572.574 300.477 579.794 303.58 588.407 303.58C597.02 303.58 604.24 300.477 610.067 294.27C615.894 288.063 618.807 279.957 618.807 269.95C618.807 260.07 615.894 252.027 610.067 245.82C604.114 239.487 596.894 236.32 588.407 236.32C579.92 236.32 572.7 239.487 566.747 245.82C560.92 252.027 558.007 260.07 558.007 269.95ZM668.718 180.46V316.5H651.238V180.46H668.718ZM707.497 180.46V316.5H690.017V180.46H707.497ZM740.599 288C740.599 292.56 742.499 296.36 746.299 299.4C750.225 302.44 754.785 303.96 759.979 303.96C767.325 303.96 773.849 301.237 779.549 295.79C785.375 290.343 788.289 283.947 788.289 276.6C782.842 272.293 775.242 270.14 765.489 270.14C758.395 270.14 752.442 271.85 747.629 275.27C742.942 278.69 740.599 282.933 740.599 288ZM763.209 220.36C776.129 220.36 786.325 223.843 793.799 230.81C801.272 237.65 805.009 247.087 805.009 259.12V316.5H788.289V303.58H787.529C780.309 314.22 770.682 319.54 758.649 319.54C748.389 319.54 739.775 316.5 732.809 310.42C725.969 304.34 722.549 296.74 722.549 287.62C722.549 277.993 726.159 270.33 733.379 264.63C740.725 258.93 750.479 256.08 762.639 256.08C773.025 256.08 781.575 257.98 788.289 261.78V257.79C788.289 251.71 785.882 246.58 781.069 242.4C776.255 238.093 770.619 235.94 764.159 235.94C754.405 235.94 746.679 240.057 740.979 248.29L725.589 238.6C734.075 226.44 746.615 220.36 763.209 220.36ZM870.324 303.58C878.684 303.58 885.714 300.413 891.414 294.08C897.114 287.873 899.964 279.83 899.964 269.95C899.964 260.197 897.114 252.153 891.414 245.82C885.714 239.487 878.684 236.32 870.324 236.32C861.837 236.32 854.744 239.487 849.044 245.82C843.471 252.153 840.684 260.197 840.684 269.95C840.684 279.83 843.471 287.937 849.044 294.27C854.744 300.477 861.837 303.58 870.324 303.58ZM873.174 319.54C866.334 319.54 860.064 318.083 854.364 315.17C848.791 312.257 844.484 308.393 841.444 303.58H840.684L841.444 316.5V357.54H823.964V223.4H840.684V236.32H841.444C844.484 231.507 848.791 227.643 854.364 224.73C860.064 221.817 866.334 220.36 873.174 220.36C885.461 220.36 895.847 225.173 904.334 234.8C913.074 244.553 917.444 256.27 917.444 269.95C917.444 283.757 913.074 295.473 904.334 305.1C895.847 314.727 885.461 319.54 873.174 319.54ZM1003.78 290.66C1003.78 298.767 1000.23 305.607 993.137 311.18C986.043 316.753 977.113 319.54 966.347 319.54C956.973 319.54 948.74 317.133 941.647 312.32C934.553 307.38 929.487 300.92 926.447 292.94L942.027 286.29C944.307 291.863 947.6 296.233 951.907 299.4C956.34 302.44 961.153 303.96 966.347 303.96C971.92 303.96 976.543 302.757 980.217 300.35C984.017 297.943 985.917 295.093 985.917 291.8C985.917 285.847 981.357 281.477 972.237 278.69L956.277 274.7C938.163 270.14 929.107 261.4 929.107 248.48C929.107 239.993 932.527 233.217 939.367 228.15C946.333 222.957 955.2 220.36 965.967 220.36C974.2 220.36 981.61 222.323 988.197 226.25C994.91 230.177 999.597 235.433 1002.26 242.02L986.677 248.48C984.903 244.553 981.99 241.513 977.937 239.36C974.01 237.08 969.577 235.94 964.637 235.94C960.077 235.94 955.96 237.08 952.287 239.36C948.74 241.64 946.967 244.427 946.967 247.72C946.967 253.04 951.97 256.84 961.977 259.12L976.037 262.73C994.53 267.29 1003.78 276.6 1003.78 290.66ZM1061.72 319.54C1048.04 319.54 1036.77 314.853 1027.9 305.48C1019.03 296.107 1014.6 284.263 1014.6 269.95C1014.6 255.763 1018.91 243.983 1027.52 234.61C1036.13 225.11 1047.15 220.36 1060.58 220.36C1074.39 220.36 1085.34 224.857 1093.45 233.85C1101.68 242.717 1105.8 255.193 1105.8 271.28L1105.61 273.18H1032.46C1032.71 282.3 1035.75 289.647 1041.58 295.22C1047.41 300.793 1054.37 303.58 1062.48 303.58C1073.63 303.58 1082.37 298.007 1088.7 286.86L1104.28 294.46C1100.1 302.313 1094.27 308.457 1086.8 312.89C1079.45 317.323 1071.09 319.54 1061.72 319.54ZM1033.79 258.74H1087.18C1086.67 252.28 1084.01 246.96 1079.2 242.78C1074.51 238.473 1068.18 236.32 1060.2 236.32C1053.61 236.32 1047.91 238.347 1043.1 242.4C1038.41 246.453 1035.31 251.9 1033.79 258.74ZM1201.2 316.5H1124.82V180.46H1142.3V299.78H1201.2V316.5ZM1211.09 269.95C1211.09 255.637 1215.59 243.793 1224.58 234.42C1233.7 225.047 1245.17 220.36 1258.97 220.36C1272.78 220.36 1284.18 225.047 1293.17 234.42C1302.29 243.793 1306.85 255.637 1306.85 269.95C1306.85 284.39 1302.29 296.233 1293.17 305.48C1284.18 314.853 1272.78 319.54 1258.97 319.54C1245.17 319.54 1233.7 314.853 1224.58 305.48C1215.59 296.107 1211.09 284.263 1211.09 269.95ZM1228.57 269.95C1228.57 279.957 1231.49 288.063 1237.31 294.27C1243.14 300.477 1250.36 303.58 1258.97 303.58C1267.59 303.58 1274.81 300.477 1280.63 294.27C1286.46 288.063 1289.37 279.957 1289.37 269.95C1289.37 260.07 1286.46 252.027 1280.63 245.82C1274.68 239.487 1267.46 236.32 1258.97 236.32C1250.49 236.32 1243.27 239.487 1237.31 245.82C1231.49 252.027 1228.57 260.07 1228.57 269.95ZM1335.46 288C1335.46 292.56 1337.36 296.36 1341.16 299.4C1345.09 302.44 1349.65 303.96 1354.84 303.96C1362.19 303.96 1368.71 301.237 1374.41 295.79C1380.24 290.343 1383.15 283.947 1383.15 276.6C1377.71 272.293 1370.11 270.14 1360.35 270.14C1353.26 270.14 1347.31 271.85 1342.49 275.27C1337.81 278.69 1335.46 282.933 1335.46 288ZM1358.07 220.36C1370.99 220.36 1381.19 223.843 1388.66 230.81C1396.14 237.65 1399.87 247.087 1399.87 259.12V316.5H1383.15V303.58H1382.39C1375.17 314.22 1365.55 319.54 1353.51 319.54C1343.25 319.54 1334.64 316.5 1327.67 310.42C1320.83 304.34 1317.41 296.74 1317.41 287.62C1317.41 277.993 1321.02 270.33 1328.24 264.63C1335.59 258.93 1345.34 256.08 1357.5 256.08C1367.89 256.08 1376.44 257.98 1383.15 261.78V257.79C1383.15 251.71 1380.75 246.58 1375.93 242.4C1371.12 238.093 1365.48 235.94 1359.02 235.94C1349.27 235.94 1341.54 240.057 1335.84 248.29L1320.45 238.6C1328.94 226.44 1341.48 220.36 1358.07 220.36ZM1460.46 303.58C1469.07 303.58 1476.1 300.477 1481.55 294.27C1487.25 288.063 1490.1 279.957 1490.1 269.95C1490.1 260.197 1487.25 252.153 1481.55 245.82C1475.98 239.487 1468.95 236.32 1460.46 236.32C1452.1 236.32 1445.07 239.487 1439.37 245.82C1433.67 252.153 1430.82 260.197 1430.82 269.95C1430.82 279.83 1433.67 287.873 1439.37 294.08C1445.07 300.413 1452.1 303.58 1460.46 303.58ZM1457.61 319.54C1445.45 319.54 1435 314.727 1426.26 305.1C1417.65 295.347 1413.34 283.63 1413.34 269.95C1413.34 256.27 1417.65 244.553 1426.26 234.8C1435 225.173 1445.45 220.36 1457.61 220.36C1464.45 220.36 1470.66 221.817 1476.23 224.73C1481.93 227.643 1486.3 231.507 1489.34 236.32H1490.1L1489.34 223.4V180.46H1506.82V316.5H1490.1V303.58H1489.34C1486.3 308.393 1481.93 312.257 1476.23 315.17C1470.66 318.083 1464.45 319.54 1457.61 319.54ZM1569 319.54C1555.32 319.54 1544.05 314.853 1535.18 305.48C1526.32 296.107 1521.88 284.263 1521.88 269.95C1521.88 255.763 1526.19 243.983 1534.8 234.61C1543.42 225.11 1554.44 220.36 1567.86 220.36C1581.67 220.36 1592.63 224.857 1600.73 233.85C1608.97 242.717 1613.08 255.193 1613.08 271.28L1612.89 273.18H1539.74C1540 282.3 1543.04 289.647 1548.86 295.22C1554.69 300.793 1561.66 303.58 1569.76 303.58C1580.91 303.58 1589.65 298.007 1595.98 286.86L1611.56 294.46C1607.38 302.313 1601.56 308.457 1594.08 312.89C1586.74 317.323 1578.38 319.54 1569 319.54ZM1541.07 258.74H1594.46C1593.96 252.28 1591.3 246.96 1586.48 242.78C1581.8 238.473 1575.46 236.32 1567.48 236.32C1560.9 236.32 1555.2 238.347 1550.38 242.4C1545.7 246.453 1542.59 251.9 1541.07 258.74ZM1646.55 316.5H1629.07V223.4H1645.79V238.6H1646.55C1648.32 233.66 1651.93 229.48 1657.38 226.06C1662.95 222.513 1668.4 220.74 1673.72 220.74C1678.79 220.74 1683.09 221.5 1686.64 223.02L1681.32 239.93C1679.17 239.043 1675.75 238.6 1671.06 238.6C1664.47 238.6 1658.71 241.26 1653.77 246.58C1648.96 251.9 1646.55 258.107 1646.55 265.2V316.5Z" fill="white"/>
</g>
</svg>
