<svg xmlns="http://www.w3.org/2000/svg" width="1134" height="966" fill="none" viewBox="0 0 1134 966"><path fill="#fff" d="M888.644 321.771C888.644 324.806 888.601 327.83 888.519 330.845C1029.4 365.064 1134 492.083 1134 643.542C1134 821.25 989.995 965.312 812.356 965.312H370.155C370.814 963.804 371.416 962.392 371.967 961.094C381.255 939.251 390.82 910.538 401.262 879.205L401.304 879.072L436.59 773.167L436.711 772.807C449.281 735.115 461.787 697.613 467.28 666.724C472.922 635.003 477.297 578.079 432.533 533.297C387.767 488.514 330.866 492.893 299.159 498.535C268.278 504.032 230.787 516.545 193.103 529.122L193.04 529.142L86.8848 564.543C55.5165 575.001 26.7679 584.585 4.90739 593.887L3.72949 594.389C23.5262 465.182 120.15 361.289 245.482 330.845C245.399 327.83 245.357 324.806 245.357 321.771C245.357 144.062 389.362 0 567 0C744.639 0 888.644 144.062 888.644 321.771Z"/><path fill="#fff" d="M261.998 959.791C246.291 968.314 227.233 968.062 211.721 959.04C194.951 949.287 183.514 914.965 160.641 846.318C156.968 835.296 155.132 829.785 152.049 825.178C149.061 820.714 145.23 816.879 140.766 813.892C136.161 810.808 130.652 808.969 119.634 805.295C51.0164 782.415 16.7065 770.974 6.95712 754.195C-2.31904 738.235 -2.31904 718.521 6.95712 702.562C16.7065 685.785 51.0144 674.344 119.634 651.462L216.956 619.007C301.976 590.656 344.487 576.482 366.925 598.929C389.366 621.378 375.197 663.9 346.855 748.957L314.416 846.318C291.542 914.965 280.106 949.287 263.333 959.04C262.892 959.298 262.447 959.547 261.998 959.791Z"/></svg>