<svg xmlns="http://www.w3.org/2000/svg" width="242" height="205" fill="none" viewBox="0 0 242 205"><path fill="#fff" fill-rule="evenodd" d="M127.168 0.498886C127.168 0.498886 227.13 106.785 242 122.771C226.243 138.695 194.438 170.232 194.438 170.232L212.236 188.533L196.349 203.918L163.166 170.534L211.231 122.168L111.583 15.783C111.583 15.783 118.88 8.54459 120.331 7.23594C122.672 5.03142 127.168 0.498886 127.168 0.498886Z" clip-rule="evenodd"/><path fill="#fff" fill-rule="evenodd" d="M86.5449 32.7764C86.5449 32.7764 143.746 92.9273 172.216 123.073C165.115 129.493 118.923 170.735 118.923 170.735C118.923 170.735 87.2146 139.027 71.3614 123.174C71.2267 122.973 71.2267 122.771 71.3614 122.57C76.4595 117.44 81.5877 112.344 86.746 107.286C97.7908 118.297 108.886 129.291 120.029 140.268C126.835 134.132 133.64 127.998 140.441 121.866C117.183 98.7912 103.994 82.5029 86.1427 64.6517C67.9537 83.8721 31.643 122.369 31.643 122.369C31.643 122.369 65.7123 156.74 79.5062 170.534C68.4896 181.818 46.022 204.018 46.022 204.018L30.4363 188.533L48.2342 170.635C48.2342 170.635 4.6165 126.689 0.471497 122.57C29.0914 92.5716 57.8408 62.6946 86.5449 32.7764Z" clip-rule="evenodd"/></svg>